<mxfile host="app.diagrams.net" modified="2024-06-19T13:11:51.461Z" agent="Mozilla/5.0 (Windows NT 10.0; Win64; x64) AppleWebKit/537.36 (KHTML, like Gecko) Chrome/123.0.0.0 Safari/537.36 OPR/109.0.0.0" etag="E_855DLH5dP0Jy0umBNP" version="24.5.5" type="device">
  <diagram name="Página-1" id="Q6ydwFMTcKRJ_GIi0eHF">
    <mxGraphModel dx="1633" dy="766" grid="1" gridSize="10" guides="1" tooltips="1" connect="1" arrows="1" fold="1" page="1" pageScale="1" pageWidth="827" pageHeight="1169" math="0" shadow="0">
      <root>
        <mxCell id="0" />
        <mxCell id="1" parent="0" />
        <mxCell id="Cdoh_M3jK3NYnCB_W6IV-1" value="Inicio" style="ellipse;whiteSpace=wrap;html=1;" vertex="1" parent="1">
          <mxGeometry x="350" y="20" width="120" height="80" as="geometry" />
        </mxCell>
        <mxCell id="Cdoh_M3jK3NYnCB_W6IV-11" style="edgeStyle=orthogonalEdgeStyle;rounded=0;orthogonalLoop=1;jettySize=auto;html=1;exitX=0;exitY=0.5;exitDx=0;exitDy=0;entryX=0.5;entryY=0;entryDx=0;entryDy=0;" edge="1" parent="1" source="Cdoh_M3jK3NYnCB_W6IV-2" target="Cdoh_M3jK3NYnCB_W6IV-3">
          <mxGeometry relative="1" as="geometry" />
        </mxCell>
        <mxCell id="Cdoh_M3jK3NYnCB_W6IV-2" value="Recibir las cadenas s1, s2, s3, s4, s5" style="whiteSpace=wrap;html=1;" vertex="1" parent="1">
          <mxGeometry x="350" y="130" width="120" height="60" as="geometry" />
        </mxCell>
        <mxCell id="Cdoh_M3jK3NYnCB_W6IV-12" style="edgeStyle=orthogonalEdgeStyle;rounded=0;orthogonalLoop=1;jettySize=auto;html=1;exitX=0.5;exitY=1;exitDx=0;exitDy=0;entryX=0.5;entryY=0;entryDx=0;entryDy=0;" edge="1" parent="1" source="Cdoh_M3jK3NYnCB_W6IV-3" target="Cdoh_M3jK3NYnCB_W6IV-4">
          <mxGeometry relative="1" as="geometry" />
        </mxCell>
        <mxCell id="Cdoh_M3jK3NYnCB_W6IV-3" value="&#xa;Asignar caracter1 = s1[0]&#xa;&#xa;" style="whiteSpace=wrap;html=1;" vertex="1" parent="1">
          <mxGeometry x="260" y="220" width="120" height="60" as="geometry" />
        </mxCell>
        <mxCell id="Cdoh_M3jK3NYnCB_W6IV-13" style="edgeStyle=orthogonalEdgeStyle;rounded=0;orthogonalLoop=1;jettySize=auto;html=1;exitX=0.5;exitY=1;exitDx=0;exitDy=0;entryX=0.5;entryY=0;entryDx=0;entryDy=0;" edge="1" parent="1" source="Cdoh_M3jK3NYnCB_W6IV-4" target="Cdoh_M3jK3NYnCB_W6IV-5">
          <mxGeometry relative="1" as="geometry" />
        </mxCell>
        <mxCell id="Cdoh_M3jK3NYnCB_W6IV-4" value="Asignar caracter2 = s2[0]" style="whiteSpace=wrap;html=1;" vertex="1" parent="1">
          <mxGeometry x="260" y="300" width="120" height="60" as="geometry" />
        </mxCell>
        <mxCell id="Cdoh_M3jK3NYnCB_W6IV-14" style="edgeStyle=none;rounded=0;orthogonalLoop=1;jettySize=auto;html=1;exitX=0.5;exitY=1;exitDx=0;exitDy=0;" edge="1" parent="1" source="Cdoh_M3jK3NYnCB_W6IV-5" target="Cdoh_M3jK3NYnCB_W6IV-6">
          <mxGeometry relative="1" as="geometry" />
        </mxCell>
        <mxCell id="Cdoh_M3jK3NYnCB_W6IV-5" value="Asignar caracter3 = s3[0]" style="whiteSpace=wrap;html=1;" vertex="1" parent="1">
          <mxGeometry x="260" y="380" width="120" height="50" as="geometry" />
        </mxCell>
        <mxCell id="Cdoh_M3jK3NYnCB_W6IV-15" style="edgeStyle=none;rounded=0;orthogonalLoop=1;jettySize=auto;html=1;exitX=0.5;exitY=1;exitDx=0;exitDy=0;entryX=0.5;entryY=0;entryDx=0;entryDy=0;" edge="1" parent="1" source="Cdoh_M3jK3NYnCB_W6IV-6" target="Cdoh_M3jK3NYnCB_W6IV-7">
          <mxGeometry relative="1" as="geometry" />
        </mxCell>
        <mxCell id="Cdoh_M3jK3NYnCB_W6IV-6" value="Asignar caracter4 = s4[0]" style="whiteSpace=wrap;html=1;" vertex="1" parent="1">
          <mxGeometry x="260" y="460" width="120" height="60" as="geometry" />
        </mxCell>
        <mxCell id="Cdoh_M3jK3NYnCB_W6IV-16" style="edgeStyle=none;rounded=0;orthogonalLoop=1;jettySize=auto;html=1;exitX=0.5;exitY=1;exitDx=0;exitDy=0;entryX=0.25;entryY=0;entryDx=0;entryDy=0;" edge="1" parent="1" source="Cdoh_M3jK3NYnCB_W6IV-7" target="Cdoh_M3jK3NYnCB_W6IV-9">
          <mxGeometry relative="1" as="geometry" />
        </mxCell>
        <mxCell id="Cdoh_M3jK3NYnCB_W6IV-7" value="Asignar caracter5 = s5[0]" style="whiteSpace=wrap;html=1;" vertex="1" parent="1">
          <mxGeometry x="260" y="540" width="120" height="60" as="geometry" />
        </mxCell>
        <mxCell id="Cdoh_M3jK3NYnCB_W6IV-17" style="edgeStyle=none;rounded=0;orthogonalLoop=1;jettySize=auto;html=1;exitX=0.25;exitY=1;exitDx=0;exitDy=0;entryX=0.25;entryY=0;entryDx=0;entryDy=0;" edge="1" parent="1" source="Cdoh_M3jK3NYnCB_W6IV-9" target="Cdoh_M3jK3NYnCB_W6IV-10">
          <mxGeometry relative="1" as="geometry" />
        </mxCell>
        <mxCell id="Cdoh_M3jK3NYnCB_W6IV-9" value="Imprimir caracter1, caracter2, caracter3, caracter4, caracter5" style="whiteSpace=wrap;html=1;" vertex="1" parent="1">
          <mxGeometry x="260" y="620" width="340" height="60" as="geometry" />
        </mxCell>
        <mxCell id="Cdoh_M3jK3NYnCB_W6IV-21" style="edgeStyle=none;rounded=0;orthogonalLoop=1;jettySize=auto;html=1;exitX=0.25;exitY=1;exitDx=0;exitDy=0;entryX=0.5;entryY=0;entryDx=0;entryDy=0;" edge="1" parent="1" source="Cdoh_M3jK3NYnCB_W6IV-18" target="Cdoh_M3jK3NYnCB_W6IV-20">
          <mxGeometry relative="1" as="geometry" />
        </mxCell>
        <mxCell id="Cdoh_M3jK3NYnCB_W6IV-22" style="edgeStyle=none;rounded=0;orthogonalLoop=1;jettySize=auto;html=1;exitX=0.75;exitY=1;exitDx=0;exitDy=0;entryX=0.25;entryY=0;entryDx=0;entryDy=0;" edge="1" parent="1" source="Cdoh_M3jK3NYnCB_W6IV-10" target="Cdoh_M3jK3NYnCB_W6IV-23">
          <mxGeometry relative="1" as="geometry">
            <mxPoint x="490" y="840" as="targetPoint" />
          </mxGeometry>
        </mxCell>
        <mxCell id="Cdoh_M3jK3NYnCB_W6IV-10" value="¿caracter1 == caracter5?" style="whiteSpace=wrap;html=1;" vertex="1" parent="1">
          <mxGeometry x="335" y="720" width="150" height="60" as="geometry" />
        </mxCell>
        <mxCell id="Cdoh_M3jK3NYnCB_W6IV-19" value="No(false)" style="text;html=1;align=center;verticalAlign=middle;resizable=0;points=[];autosize=1;strokeColor=none;fillColor=none;" vertex="1" parent="1">
          <mxGeometry x="470" y="790" width="70" height="30" as="geometry" />
        </mxCell>
        <mxCell id="Cdoh_M3jK3NYnCB_W6IV-26" style="edgeStyle=none;rounded=0;orthogonalLoop=1;jettySize=auto;html=1;exitX=0.25;exitY=1;exitDx=0;exitDy=0;entryX=0.308;entryY=0.033;entryDx=0;entryDy=0;entryPerimeter=0;" edge="1" parent="1" source="Cdoh_M3jK3NYnCB_W6IV-20" target="Cdoh_M3jK3NYnCB_W6IV-27">
          <mxGeometry relative="1" as="geometry">
            <mxPoint x="300" y="960" as="targetPoint" />
          </mxGeometry>
        </mxCell>
        <mxCell id="Cdoh_M3jK3NYnCB_W6IV-20" value="Hemos encontrado algo" style="whiteSpace=wrap;html=1;" vertex="1" parent="1">
          <mxGeometry x="270" y="850" width="120" height="60" as="geometry" />
        </mxCell>
        <mxCell id="Cdoh_M3jK3NYnCB_W6IV-23" value="&quot;Aun sin suerte&quot;" style="whiteSpace=wrap;html=1;" vertex="1" parent="1">
          <mxGeometry x="480" y="840" width="120" height="70" as="geometry" />
        </mxCell>
        <mxCell id="Cdoh_M3jK3NYnCB_W6IV-24" value="" style="edgeStyle=none;rounded=0;orthogonalLoop=1;jettySize=auto;html=1;exitX=0.25;exitY=1;exitDx=0;exitDy=0;entryX=0.5;entryY=0;entryDx=0;entryDy=0;" edge="1" parent="1" source="Cdoh_M3jK3NYnCB_W6IV-10" target="Cdoh_M3jK3NYnCB_W6IV-18">
          <mxGeometry relative="1" as="geometry">
            <mxPoint x="373" y="780" as="sourcePoint" />
            <mxPoint x="330" y="850" as="targetPoint" />
          </mxGeometry>
        </mxCell>
        <mxCell id="Cdoh_M3jK3NYnCB_W6IV-18" value="SI(true)" style="text;html=1;align=center;verticalAlign=middle;resizable=0;points=[];autosize=1;strokeColor=none;fillColor=none;" vertex="1" parent="1">
          <mxGeometry x="330" y="790" width="60" height="30" as="geometry" />
        </mxCell>
        <mxCell id="Cdoh_M3jK3NYnCB_W6IV-27" value="Fin" style="whiteSpace=wrap;html=1;" vertex="1" parent="1">
          <mxGeometry x="300" y="950" width="120" height="60" as="geometry" />
        </mxCell>
        <mxCell id="Cdoh_M3jK3NYnCB_W6IV-28" style="edgeStyle=none;rounded=0;orthogonalLoop=1;jettySize=auto;html=1;exitX=0.25;exitY=1;exitDx=0;exitDy=0;entryX=0.983;entryY=0.65;entryDx=0;entryDy=0;entryPerimeter=0;" edge="1" parent="1" source="Cdoh_M3jK3NYnCB_W6IV-23" target="Cdoh_M3jK3NYnCB_W6IV-27">
          <mxGeometry relative="1" as="geometry" />
        </mxCell>
      </root>
    </mxGraphModel>
  </diagram>
</mxfile>
